<svg width="38" height="31" viewBox="0 0 38 31" fill="none" xmlns="http://www.w3.org/2000/svg">
<path d="M7.11989 7.51598C6.54511 7.51598 6.02706 7.11723 5.89901 6.53286L5.66793 5.48091C5.36594 4.10612 4.12546 3.10797 2.71813 3.10797H1.46013C0.768979 3.10797 0.208801 2.54779 0.208801 1.85664C0.208801 1.16549 0.768979 0.605316 1.46013 0.605316H2.71813C5.29211 0.605316 7.56077 2.43017 8.11261 4.94409L8.34369 5.99562C8.49176 6.67092 8.06506 7.33788 7.38976 7.48637C7.29924 7.50681 7.20873 7.51598 7.11989 7.51598Z" fill="#4B4A4A"/>
<path d="M27.1232 27.946C27.1211 27.8893 27.1144 27.8334 27.1144 27.7763C27.1144 26.9128 27.3785 26.1099 27.8298 25.4434H18.0423C18.4936 26.1095 18.7572 26.9128 18.7572 27.7763C18.7572 27.8334 18.751 27.8893 18.7485 27.946H27.1232Z" fill="#4B4A4A"/>
<path d="M10.415 27.7762C10.415 26.9082 10.682 26.1016 11.1379 25.4333C10.5506 25.382 10.0872 24.8932 10.0872 24.293C10.0872 23.6585 10.6032 23.1426 11.2376 23.1426C11.9287 23.1426 12.4889 22.5824 12.4889 21.8913C12.4889 21.2001 11.9287 20.6399 11.2376 20.6399C9.22294 20.6399 7.58453 22.2787 7.58453 24.293C7.58453 26.0256 8.7979 27.4772 10.4192 27.8501C10.4184 27.8255 10.415 27.8013 10.415 27.7762Z" fill="#4B4A4A"/>
<path d="M32.1907 23.143H10.5506C9.96292 23.143 9.45447 22.7342 9.3285 22.1603L5.89903 6.53326C5.81769 6.16329 5.90862 5.77621 6.14595 5.4809C6.38371 5.18558 6.742 5.01373 7.12116 5.01373H36.4973C36.8531 5.01373 37.1918 5.16514 37.4292 5.43001C37.6661 5.69487 37.7799 6.04816 37.7412 6.40187L36.3088 19.452C36.0781 21.5559 34.3075 23.143 32.1907 23.143ZM11.5571 20.6403H32.1907C33.0291 20.6403 33.7298 20.0117 33.8212 19.1783L35.1009 7.51597H8.67697L11.5571 20.6403Z" fill="#4B4A4A"/>
<path d="M22.6668 23.143C21.9756 23.143 21.4155 22.5828 21.4155 21.8917V6.26466C21.4155 5.57351 21.9756 5.01334 22.6668 5.01334C23.3579 5.01334 23.9181 5.57351 23.9181 6.26466V21.8917C23.9181 22.5828 23.3579 23.143 22.6668 23.143Z" fill="#4B4A4A"/>
<path d="M28.6694 23.143C28.6352 23.143 28.6006 23.1417 28.5656 23.1388C27.8769 23.0817 27.3643 22.4777 27.421 21.789L28.707 6.16204C28.7637 5.47381 29.361 4.95993 30.0568 5.01749C30.7454 5.07422 31.258 5.67819 31.2013 6.36726L29.9154 21.9943C29.862 22.6479 29.3143 23.143 28.6694 23.143Z" fill="#4B4A4A"/>
<path d="M16.6629 23.143C16.0331 23.143 15.4908 22.6687 15.4208 22.028L13.706 6.40104C13.6305 5.71406 14.1265 5.09632 14.8134 5.02083C15.5004 4.94575 16.1182 5.44127 16.1937 6.12825L17.9084 21.7553C17.9839 22.4418 17.4879 23.0604 16.801 23.1359C16.7547 23.1405 16.7088 23.143 16.6629 23.143Z" fill="#4B4A4A"/>
<path d="M35.6397 15.3293H8.83586C8.14471 15.3293 7.58453 14.7691 7.58453 14.078C7.58453 13.3868 8.14471 12.8266 8.83586 12.8266H35.6401C36.3313 12.8266 36.8915 13.3868 36.8915 14.078C36.8915 14.7691 36.3313 15.3293 35.6397 15.3293Z" fill="#4B4A4A"/>
<path d="M14.5866 30.6943C16.1991 30.6943 17.5063 29.3871 17.5063 27.7746C17.5063 26.162 16.1991 24.8548 14.5866 24.8548C12.974 24.8548 11.6668 26.162 11.6668 27.7746C11.6668 29.3871 12.974 30.6943 14.5866 30.6943Z" fill="#232222"/>
<path d="M31.2835 30.6943C32.896 30.6943 34.2032 29.3871 34.2032 27.7746C34.2032 26.162 32.896 24.8548 31.2835 24.8548C29.6709 24.8548 28.3637 26.162 28.3637 27.7746C28.3637 29.3871 29.6709 30.6943 31.2835 30.6943Z" fill="#232222"/>
</svg>
